<svg width="20" height="20" viewBox="0 0 20 20" fill="none" xmlns="http://www.w3.org/2000/svg">
<g clip-path="url(#clip0)">
<path d="M10 20C15.5228 20 20 15.5228 20 10C20 4.47715 15.5228 0 10 0C4.47715 0 0 4.47715 0 10C0 15.5228 4.47715 20 10 20Z" fill="#E57E25"/>
<path d="M0.260357 11.0654C1.55357 9.83036 3.67964 9.43822 5.20786 10.1518C3.85143 12.0864 2.85214 14.2879 2.29536 16.6586C2.46357 16.8618 2.64107 17.0564 2.82464 17.2454C2.875 17.1979 2.91464 17.1382 2.93036 17.0657C3.45571 14.6786 4.45143 12.4668 5.81429 10.5314C6.72679 11.2397 7.17464 12.4054 7.07322 13.9011L7.07179 13.9204L7.0725 13.94C7.16214 16.1054 8.41036 18.0868 10.4111 19.2397C11.0404 19.6025 11.6996 19.855 12.3632 20C12.9554 19.8564 13.5261 19.66 14.0718 19.4164C12.9829 19.5007 11.83 19.2329 10.7675 18.6207C8.98571 17.5939 7.87286 15.8414 7.78679 13.9293C7.92786 11.7636 7.06964 10.5814 6.2425 9.94894C6.77357 9.25429 7.35393 8.59965 7.9775 7.98894C10.5325 10.365 12.935 12.91 15.1475 15.6007L16.6879 17.4746L17.2396 17.0207L15.6993 15.1468C13.4768 12.4439 11.0646 9.88679 8.49929 7.49822C8.99572 7.04858 9.51714 6.62608 10.0611 6.23286C10.9146 7.31179 12.2871 7.84036 14.0025 7.72751C15.6164 7.80072 17.1311 8.67929 18.1607 10.1397C18.9614 11.2754 19.3689 12.6261 19.3282 13.8861C19.5507 13.3107 19.7207 12.7097 19.8343 12.0886C19.6229 11.2632 19.2568 10.4546 18.7446 9.72822C17.5821 8.07929 15.8575 7.08965 14.0132 7.01322L13.9936 7.01251L13.9743 7.01394C12.5207 7.11179 11.3693 6.68858 10.6546 5.82108C12.4911 4.60072 14.56 3.70322 16.7814 3.21394C16.8539 3.19786 16.9118 3.15644 16.9593 3.10608C16.7707 2.92322 16.5764 2.74608 16.3739 2.57858C14.1632 3.09786 12.1007 4.00358 10.2636 5.22394C9.56857 3.82822 9.81179 1.86679 10.8589 0.520721L11.0043 0.333936C10.6743 0.301078 10.3393 0.283936 10 0.283936V0.503221C9.00929 2.07144 8.86179 4.11358 9.66929 5.63572C9.07679 6.06251 8.51036 6.52251 7.97179 7.01322C6.80429 5.94572 5.60929 4.90929 4.38143 3.91536L3.1975 2.95679C3.02179 3.12001 2.8525 3.28929 2.68893 3.46465L3.93214 4.47108C5.13536 5.44501 6.30679 6.46001 7.45179 7.50572C6.79857 8.14786 6.19071 8.83644 5.63572 9.56715C5.595 9.54644 5.55357 9.52501 5.51464 9.50679C3.82071 8.71358 1.59286 9.04608 0.0678571 10.2839H0C0 10.6161 0.0171429 10.9439 0.0485714 11.2675L0.260357 11.0654Z" fill="#38454F"/>
</g>
<defs>
<clipPath id="clip0">
<rect width="20" height="20" fill="white" transform="matrix(1 0 0 -1 0 20)"/>
</clipPath>
</defs>
</svg>
